<?xml version="1.0" encoding="UTF-8" standalone="no"?>
<!DOCTYPE svg PUBLIC "-//W3C//DTD SVG 1.1//EN"
 "http://www.w3.org/Graphics/SVG/1.1/DTD/svg11.dtd">
<!-- Generated by graphviz version 2.36.0 (20140111.2315)
 -->
<!-- Title: org.lightjason.rest.container.CVariable Pages: 1 -->
<svg width="140pt" height="196pt"
 viewBox="0.00 0.00 140.00 196.00" xmlns="http://www.w3.org/2000/svg" xmlns:xlink="http://www.w3.org/1999/xlink">
<g id="graph0" class="graph" transform="scale(1 1) rotate(0) translate(4 192)">
<title>org.lightjason.rest.container.CVariable</title>
<!-- Node1 -->
<g id="node1" class="node"><title>Node1</title>
<polygon fill="#bfbfbf" stroke="black" points="0,-1 0,-85 132,-85 132,-1 0,-1"/>
<text text-anchor="start" x="8" y="-73.8" font-family="Helvetica,sans-Serif" font-size="9.00">org.lightjason.rest.container.</text>
<text text-anchor="middle" x="66" y="-63.8" font-family="Helvetica,sans-Serif" font-size="9.00">CVariable</text>
<polyline fill="none" stroke="black" points="0,-57 132,-57 "/>
<text text-anchor="start" x="8" y="-45.8" font-family="Helvetica,sans-Serif" font-size="9.00">&#45; m_functor</text>
<text text-anchor="start" x="8" y="-35.8" font-family="Helvetica,sans-Serif" font-size="9.00">&#45; m_value</text>
<polyline fill="none" stroke="black" points="0,-29 132,-29 "/>
<text text-anchor="start" x="8" y="-17.8" font-family="Helvetica,sans-Serif" font-size="9.00">+ CVariable()</text>
<text text-anchor="start" x="8" y="-7.8" font-family="Helvetica,sans-Serif" font-size="9.00">+ toString()</text>
</g>
<!-- Node2 -->
<g id="node2" class="node"><title>Node2</title>
<g id="a_node2"><a xlink:href="../../d6/d13/interfaceorg_1_1lightjason_1_1rest_1_1container_1_1ITerm.html" target="_top" xlink:title="term interface ">
<polygon fill="none" stroke="black" points="0,-123 0,-187 132,-187 132,-123 0,-123"/>
<text text-anchor="start" x="8" y="-175.8" font-family="Helvetica,sans-Serif" font-size="9.00">org.lightjason.rest.container.</text>
<text text-anchor="middle" x="66" y="-165.8" font-family="Helvetica,sans-Serif" font-size="9.00">ITerm</text>
<polyline fill="none" stroke="black" points="0,-159 132,-159 "/>
<text text-anchor="middle" x="66" y="-147.8" font-family="Helvetica,sans-Serif" font-size="9.00"> </text>
<polyline fill="none" stroke="black" points="0,-141 132,-141 "/>
<text text-anchor="middle" x="66" y="-129.8" font-family="Helvetica,sans-Serif" font-size="9.00"> </text>
</a>
</g>
</g>
<!-- Node2&#45;&gt;Node1 -->
<g id="edge1" class="edge"><title>Node2&#45;&gt;Node1</title>
<path fill="none" stroke="midnightblue" d="M66,-112.553C66,-103.594 66,-94.1234 66,-85.1751"/>
<polygon fill="none" stroke="midnightblue" points="62.5001,-112.773 66,-122.773 69.5001,-112.773 62.5001,-112.773"/>
</g>
</g>
</svg>
