<?xml version="1.0" encoding="UTF-8" standalone="no"?>
<!DOCTYPE svg PUBLIC "-//W3C//DTD SVG 1.1//EN"
 "http://www.w3.org/Graphics/SVG/1.1/DTD/svg11.dtd">
<!-- Generated by graphviz version 2.36.0 (20140111.2315)
 -->
<!-- Title: Graphical Class Hierarchy Pages: 1 -->
<svg width="400pt" height="36pt"
 viewBox="0.00 0.00 400.00 36.00" xmlns="http://www.w3.org/2000/svg" xmlns:xlink="http://www.w3.org/1999/xlink">
<g id="graph0" class="graph" transform="scale(1 1) rotate(0) translate(4 32)">
<title>Graphical Class Hierarchy</title>
<!-- Node1 -->
<g id="node1" class="node"><title>Node1</title>
<polygon fill="none" stroke="#bfbfbf" points="0,-5 0,-23 56,-23 56,-5 0,-5"/>
<text text-anchor="middle" x="28" y="-11.8" font-family="Helvetica,sans-Serif" font-size="9.00">IInspector</text>
</g>
<!-- Node2 -->
<g id="node2" class="node"><title>Node2</title>
<g id="a_node2"><a xlink:href="d7/d24/interfaceorg_1_1lightjason_1_1rest_1_1inspector_1_1IAgentInspector.html" target="_top" xlink:title="inspector interface of the ReST&#45;API ">
<polygon fill="none" stroke="black" points="92.5,-0 92.5,-28 223.5,-28 223.5,-0 92.5,-0"/>
<text text-anchor="start" x="100.5" y="-16.8" font-family="Helvetica,sans-Serif" font-size="9.00">org.lightjason.rest.inspector.</text>
<text text-anchor="middle" x="158" y="-6.8" font-family="Helvetica,sans-Serif" font-size="9.00">IAgentInspector</text>
</a>
</g>
</g>
<!-- Node1&#45;&gt;Node2 -->
<g id="edge1" class="edge"><title>Node1&#45;&gt;Node2</title>
<path fill="none" stroke="midnightblue" d="M66.1866,-14C74.4649,-14 83.4738,-14 92.4961,-14"/>
<polygon fill="midnightblue" stroke="midnightblue" points="66.1455,-10.5001 56.1455,-14 66.1455,-17.5001 66.1455,-10.5001"/>
</g>
<!-- Node3 -->
<g id="node3" class="node"><title>Node3</title>
<g id="a_node3"><a xlink:href="d5/de4/classorg_1_1lightjason_1_1rest_1_1inspector_1_1CAgentInspector.html" target="_top" xlink:title="inspector of an agent ">
<polygon fill="none" stroke="black" points="260.5,-0 260.5,-28 391.5,-28 391.5,-0 260.5,-0"/>
<text text-anchor="start" x="268.5" y="-16.8" font-family="Helvetica,sans-Serif" font-size="9.00">org.lightjason.rest.inspector.</text>
<text text-anchor="middle" x="326" y="-6.8" font-family="Helvetica,sans-Serif" font-size="9.00">CAgentInspector</text>
</a>
</g>
</g>
<!-- Node2&#45;&gt;Node3 -->
<g id="edge2" class="edge"><title>Node2&#45;&gt;Node3</title>
<path fill="none" stroke="midnightblue" d="M233.898,-14C242.693,-14 251.609,-14 260.248,-14"/>
<polygon fill="midnightblue" stroke="midnightblue" points="233.655,-10.5001 223.655,-14 233.655,-17.5001 233.655,-10.5001"/>
</g>
</g>
</svg>
