<?xml version="1.0" encoding="UTF-8" standalone="no"?>
<!DOCTYPE svg PUBLIC "-//W3C//DTD SVG 1.1//EN"
 "http://www.w3.org/Graphics/SVG/1.1/DTD/svg11.dtd">
<!-- Generated by graphviz version 2.36.0 (20140111.2315)
 -->
<!-- Title: Graphical Class Hierarchy Pages: 1 -->
<svg width="226pt" height="130pt"
 viewBox="0.00 0.00 226.00 130.00" xmlns="http://www.w3.org/2000/svg" xmlns:xlink="http://www.w3.org/1999/xlink">
<g id="graph0" class="graph" transform="scale(1 1) rotate(0) translate(4 126)">
<title>Graphical Class Hierarchy</title>
<!-- Node1 -->
<g id="node1" class="node"><title>Node1</title>
<polygon fill="none" stroke="#bfbfbf" points="0.5,-52 0.5,-70 53.5,-70 53.5,-52 0.5,-52"/>
<text text-anchor="middle" x="27" y="-58.8" font-family="Helvetica,sans-Serif" font-size="9.00">IProvider</text>
</g>
<!-- Node2 -->
<g id="node2" class="node"><title>Node2</title>
<g id="a_node2"><a xlink:href="de/d55/classorg_1_1lightjason_1_1rest_1_1provider_1_1CAgentGeneratorProvider.html" target="_top" xlink:title="agent generator provider ">
<polygon fill="none" stroke="black" points="90,-94 90,-122 218,-122 218,-94 90,-94"/>
<text text-anchor="start" x="98" y="-110.8" font-family="Helvetica,sans-Serif" font-size="9.00">org.lightjason.rest.provider.</text>
<text text-anchor="middle" x="154" y="-100.8" font-family="Helvetica,sans-Serif" font-size="9.00">CAgentGeneratorProvider</text>
</a>
</g>
</g>
<!-- Node1&#45;&gt;Node2 -->
<g id="edge1" class="edge"><title>Node1&#45;&gt;Node2</title>
<path fill="none" stroke="midnightblue" d="M61.4818,-73.5892C78.1975,-79.8742 98.4724,-87.4976 115.686,-93.9701"/>
<polygon fill="midnightblue" stroke="midnightblue" points="62.6933,-70.3055 52.1013,-70.0621 60.2296,-76.8577 62.6933,-70.3055"/>
</g>
<!-- Node3 -->
<g id="node3" class="node"><title>Node3</title>
<g id="a_node3"><a xlink:href="dc/d30/classorg_1_1lightjason_1_1rest_1_1provider_1_1CAgentGroupProvider.html" target="_top" xlink:title="agent group provider ">
<polygon fill="none" stroke="black" points="90,-47 90,-75 218,-75 218,-47 90,-47"/>
<text text-anchor="start" x="98" y="-63.8" font-family="Helvetica,sans-Serif" font-size="9.00">org.lightjason.rest.provider.</text>
<text text-anchor="middle" x="154" y="-53.8" font-family="Helvetica,sans-Serif" font-size="9.00">CAgentGroupProvider</text>
</a>
</g>
</g>
<!-- Node1&#45;&gt;Node3 -->
<g id="edge2" class="edge"><title>Node1&#45;&gt;Node3</title>
<path fill="none" stroke="midnightblue" d="M63.8102,-61C71.9513,-61 80.8363,-61 89.7418,-61"/>
<polygon fill="midnightblue" stroke="midnightblue" points="63.5973,-57.5001 53.5973,-61 63.5972,-64.5001 63.5973,-57.5001"/>
</g>
<!-- Node4 -->
<g id="node4" class="node"><title>Node4</title>
<g id="a_node4"><a xlink:href="dd/d5e/classorg_1_1lightjason_1_1rest_1_1provider_1_1CAgentProvider.html" target="_top" xlink:title="agent provider ">
<polygon fill="none" stroke="black" points="90,-0 90,-28 218,-28 218,-0 90,-0"/>
<text text-anchor="start" x="98" y="-16.8" font-family="Helvetica,sans-Serif" font-size="9.00">org.lightjason.rest.provider.</text>
<text text-anchor="middle" x="154" y="-6.8" font-family="Helvetica,sans-Serif" font-size="9.00">CAgentProvider</text>
</a>
</g>
</g>
<!-- Node1&#45;&gt;Node4 -->
<g id="edge3" class="edge"><title>Node1&#45;&gt;Node4</title>
<path fill="none" stroke="midnightblue" d="M61.4818,-48.4108C78.1975,-42.1258 98.4724,-34.5024 115.686,-28.0299"/>
<polygon fill="midnightblue" stroke="midnightblue" points="60.2296,-45.1423 52.1013,-51.9379 62.6933,-51.6945 60.2296,-45.1423"/>
</g>
</g>
</svg>
