<?xml version="1.0" encoding="UTF-8" standalone="no"?>
<!DOCTYPE svg PUBLIC "-//W3C//DTD SVG 1.1//EN"
 "http://www.w3.org/Graphics/SVG/1.1/DTD/svg11.dtd">
<!-- Generated by graphviz version 2.36.0 (20140111.2315)
 -->
<!-- Title: Graphical Class Hierarchy Pages: 1 -->
<svg width="308pt" height="130pt"
 viewBox="0.00 0.00 308.00 130.00" xmlns="http://www.w3.org/2000/svg" xmlns:xlink="http://www.w3.org/1999/xlink">
<g id="graph0" class="graph" transform="scale(1 1) rotate(0) translate(4 126)">
<title>Graphical Class Hierarchy</title>
<!-- Node1 -->
<g id="node1" class="node"><title>Node1</title>
<g id="a_node1"><a xlink:href="d6/d13/interfaceorg_1_1lightjason_1_1rest_1_1container_1_1ITerm.html" target="_top" xlink:title="term interface ">
<polygon fill="none" stroke="black" points="0,-47 0,-75 132,-75 132,-47 0,-47"/>
<text text-anchor="start" x="8" y="-63.8" font-family="Helvetica,sans-Serif" font-size="9.00">org.lightjason.rest.container.</text>
<text text-anchor="middle" x="66" y="-53.8" font-family="Helvetica,sans-Serif" font-size="9.00">ITerm</text>
</a>
</g>
</g>
<!-- Node2 -->
<g id="node2" class="node"><title>Node2</title>
<g id="a_node2"><a xlink:href="df/dad/classorg_1_1lightjason_1_1rest_1_1container_1_1CLiteral.html" target="_top" xlink:title="literal container ">
<polygon fill="none" stroke="black" points="168,-94 168,-122 300,-122 300,-94 168,-94"/>
<text text-anchor="start" x="176" y="-110.8" font-family="Helvetica,sans-Serif" font-size="9.00">org.lightjason.rest.container.</text>
<text text-anchor="middle" x="234" y="-100.8" font-family="Helvetica,sans-Serif" font-size="9.00">CLiteral</text>
</a>
</g>
</g>
<!-- Node1&#45;&gt;Node2 -->
<g id="edge1" class="edge"><title>Node1&#45;&gt;Node2</title>
<path fill="none" stroke="midnightblue" d="M126.666,-77.8933C145.306,-83.171 165.655,-88.9325 183.516,-93.9894"/>
<polygon fill="midnightblue" stroke="midnightblue" points="127.381,-74.4582 116.805,-75.1015 125.474,-81.1935 127.381,-74.4582"/>
</g>
<!-- Node3 -->
<g id="node3" class="node"><title>Node3</title>
<g id="a_node3"><a xlink:href="d4/de7/classorg_1_1lightjason_1_1rest_1_1container_1_1CRaw_3_01T_01_4.html" target="_top" xlink:title="raw value of a term ">
<polygon fill="none" stroke="black" points="168,-47 168,-75 300,-75 300,-47 168,-47"/>
<text text-anchor="start" x="176" y="-63.8" font-family="Helvetica,sans-Serif" font-size="9.00">org.lightjason.rest.container.</text>
<text text-anchor="middle" x="234" y="-53.8" font-family="Helvetica,sans-Serif" font-size="9.00">CRaw&lt; T &gt;</text>
</a>
</g>
</g>
<!-- Node1&#45;&gt;Node3 -->
<g id="edge2" class="edge"><title>Node1&#45;&gt;Node3</title>
<path fill="none" stroke="midnightblue" d="M142.393,-61C150.869,-61 159.452,-61 167.784,-61"/>
<polygon fill="midnightblue" stroke="midnightblue" points="142.131,-57.5001 132.131,-61 142.131,-64.5001 142.131,-57.5001"/>
</g>
<!-- Node4 -->
<g id="node4" class="node"><title>Node4</title>
<g id="a_node4"><a xlink:href="d3/d18/classorg_1_1lightjason_1_1rest_1_1container_1_1CVariable.html" target="_top" xlink:title="variable container ">
<polygon fill="none" stroke="black" points="168,-0 168,-28 300,-28 300,-0 168,-0"/>
<text text-anchor="start" x="176" y="-16.8" font-family="Helvetica,sans-Serif" font-size="9.00">org.lightjason.rest.container.</text>
<text text-anchor="middle" x="234" y="-6.8" font-family="Helvetica,sans-Serif" font-size="9.00">CVariable</text>
</a>
</g>
</g>
<!-- Node1&#45;&gt;Node4 -->
<g id="edge3" class="edge"><title>Node1&#45;&gt;Node4</title>
<path fill="none" stroke="midnightblue" d="M126.666,-44.1067C145.306,-38.829 165.655,-33.0675 183.516,-28.0106"/>
<polygon fill="midnightblue" stroke="midnightblue" points="125.474,-40.8065 116.805,-46.8985 127.381,-47.5418 125.474,-40.8065"/>
</g>
</g>
</svg>
