<?xml version="1.0" encoding="UTF-8" standalone="no"?>
<!DOCTYPE svg PUBLIC "-//W3C//DTD SVG 1.1//EN"
 "http://www.w3.org/Graphics/SVG/1.1/DTD/svg11.dtd">
<!-- Generated by graphviz version 2.36.0 (20140111.2315)
 -->
<!-- Title: org.lightjason.rest.container.CRaw&lt; T &gt; Pages: 1 -->
<svg width="140pt" height="186pt"
 viewBox="0.00 0.00 140.00 186.00" xmlns="http://www.w3.org/2000/svg" xmlns:xlink="http://www.w3.org/1999/xlink">
<g id="graph0" class="graph" transform="scale(1 1) rotate(0) translate(4 182)">
<title>org.lightjason.rest.container.CRaw&lt; T &gt;</title>
<!-- Node1 -->
<g id="node1" class="node"><title>Node1</title>
<polygon fill="#bfbfbf" stroke="black" points="0,-1 0,-75 132,-75 132,-1 0,-1"/>
<text text-anchor="start" x="8" y="-63.8" font-family="Helvetica,sans-Serif" font-size="9.00">org.lightjason.rest.container.</text>
<text text-anchor="middle" x="66" y="-53.8" font-family="Helvetica,sans-Serif" font-size="9.00">CRaw&lt; T &gt;</text>
<polyline fill="none" stroke="black" points="0,-47 132,-47 "/>
<text text-anchor="start" x="8" y="-35.8" font-family="Helvetica,sans-Serif" font-size="9.00">&#45; m_value</text>
<polyline fill="none" stroke="black" points="0,-29 132,-29 "/>
<text text-anchor="start" x="8" y="-17.8" font-family="Helvetica,sans-Serif" font-size="9.00">+ CRaw()</text>
<text text-anchor="start" x="8" y="-7.8" font-family="Helvetica,sans-Serif" font-size="9.00">+ toString()</text>
</g>
<!-- Node2 -->
<g id="node2" class="node"><title>Node2</title>
<g id="a_node2"><a xlink:href="../../d6/d13/interfaceorg_1_1lightjason_1_1rest_1_1container_1_1ITerm.html" target="_top" xlink:title="term interface ">
<polygon fill="none" stroke="black" points="0,-113 0,-177 132,-177 132,-113 0,-113"/>
<text text-anchor="start" x="8" y="-165.8" font-family="Helvetica,sans-Serif" font-size="9.00">org.lightjason.rest.container.</text>
<text text-anchor="middle" x="66" y="-155.8" font-family="Helvetica,sans-Serif" font-size="9.00">ITerm</text>
<polyline fill="none" stroke="black" points="0,-149 132,-149 "/>
<text text-anchor="middle" x="66" y="-137.8" font-family="Helvetica,sans-Serif" font-size="9.00"> </text>
<polyline fill="none" stroke="black" points="0,-131 132,-131 "/>
<text text-anchor="middle" x="66" y="-119.8" font-family="Helvetica,sans-Serif" font-size="9.00"> </text>
</a>
</g>
</g>
<!-- Node2&#45;&gt;Node1 -->
<g id="edge1" class="edge"><title>Node2&#45;&gt;Node1</title>
<path fill="none" stroke="midnightblue" d="M66,-102.734C66,-93.6001 66,-83.9905 66,-75.0822"/>
<polygon fill="none" stroke="midnightblue" points="62.5001,-102.781 66,-112.781 69.5001,-102.781 62.5001,-102.781"/>
</g>
</g>
</svg>
