<?xml version="1.0" encoding="UTF-8" standalone="no"?>
<!DOCTYPE svg PUBLIC "-//W3C//DTD SVG 1.1//EN"
 "http://www.w3.org/Graphics/SVG/1.1/DTD/svg11.dtd">
<!-- Generated by graphviz version 2.36.0 (20140111.2315)
 -->
<!-- Title: org.lightjason.rest.container.IPlan Pages: 1 -->
<svg width="140pt" height="216pt"
 viewBox="0.00 0.00 140.00 216.00" xmlns="http://www.w3.org/2000/svg" xmlns:xlink="http://www.w3.org/1999/xlink">
<g id="graph0" class="graph" transform="scale(1 1) rotate(0) translate(4 212)">
<title>org.lightjason.rest.container.IPlan</title>
<!-- Node1 -->
<g id="node1" class="node"><title>Node1</title>
<polygon fill="#bfbfbf" stroke="black" points="0,-143 0,-207 132,-207 132,-143 0,-143"/>
<text text-anchor="start" x="8" y="-195.8" font-family="Helvetica,sans-Serif" font-size="9.00">org.lightjason.rest.container.</text>
<text text-anchor="middle" x="66" y="-185.8" font-family="Helvetica,sans-Serif" font-size="9.00">IPlan</text>
<polyline fill="none" stroke="black" points="0,-179 132,-179 "/>
<text text-anchor="middle" x="66" y="-167.8" font-family="Helvetica,sans-Serif" font-size="9.00"> </text>
<polyline fill="none" stroke="black" points="0,-161 132,-161 "/>
<text text-anchor="middle" x="66" y="-149.8" font-family="Helvetica,sans-Serif" font-size="9.00"> </text>
</g>
<!-- Node2 -->
<g id="node2" class="node"><title>Node2</title>
<g id="a_node2"><a xlink:href="../../dc/d35/classorg_1_1lightjason_1_1rest_1_1container_1_1CPlan.html" target="_top" xlink:title="plan container ">
<polygon fill="none" stroke="black" points="0,-1 0,-105 132,-105 132,-1 0,-1"/>
<text text-anchor="start" x="8" y="-93.8" font-family="Helvetica,sans-Serif" font-size="9.00">org.lightjason.rest.container.</text>
<text text-anchor="middle" x="66" y="-83.8" font-family="Helvetica,sans-Serif" font-size="9.00">CPlan</text>
<polyline fill="none" stroke="black" points="0,-77 132,-77 "/>
<text text-anchor="start" x="8" y="-65.8" font-family="Helvetica,sans-Serif" font-size="9.00">&#45; m_fail</text>
<text text-anchor="start" x="8" y="-55.8" font-family="Helvetica,sans-Serif" font-size="9.00">&#45; m_literal</text>
<text text-anchor="start" x="8" y="-45.8" font-family="Helvetica,sans-Serif" font-size="9.00">&#45; m_successful</text>
<text text-anchor="start" x="8" y="-35.8" font-family="Helvetica,sans-Serif" font-size="9.00">&#45; m_trigger</text>
<polyline fill="none" stroke="black" points="0,-29 132,-29 "/>
<text text-anchor="start" x="8" y="-17.8" font-family="Helvetica,sans-Serif" font-size="9.00">+ CPlan()</text>
<text text-anchor="start" x="8" y="-7.8" font-family="Helvetica,sans-Serif" font-size="9.00">+ toString()</text>
</a>
</g>
</g>
<!-- Node1&#45;&gt;Node2 -->
<g id="edge1" class="edge"><title>Node1&#45;&gt;Node2</title>
<path fill="none" stroke="midnightblue" d="M66,-132.671C66,-123.772 66,-114.264 66,-105.044"/>
<polygon fill="none" stroke="midnightblue" points="62.5001,-132.785 66,-142.785 69.5001,-132.785 62.5001,-132.785"/>
</g>
</g>
</svg>
