<?xml version="1.0" encoding="UTF-8" standalone="no"?>
<!DOCTYPE svg PUBLIC "-//W3C//DTD SVG 1.1//EN"
 "http://www.w3.org/Graphics/SVG/1.1/DTD/svg11.dtd">
<!-- Generated by graphviz version 2.36.0 (20140111.2315)
 -->
<!-- Title: org.lightjason.rest.container.CPlan Pages: 1 -->
<svg width="290pt" height="216pt"
 viewBox="0.00 0.00 290.00 216.00" xmlns="http://www.w3.org/2000/svg" xmlns:xlink="http://www.w3.org/1999/xlink">
<g id="graph0" class="graph" transform="scale(1 1) rotate(0) translate(4 212)">
<title>org.lightjason.rest.container.CPlan</title>
<!-- Node1 -->
<g id="node1" class="node"><title>Node1</title>
<polygon fill="#bfbfbf" stroke="black" points="75,-1 75,-95 207,-95 207,-1 75,-1"/>
<text text-anchor="start" x="83" y="-83.8" font-family="Helvetica,sans-Serif" font-size="9.00">org.lightjason.rest.container.</text>
<text text-anchor="middle" x="141" y="-73.8" font-family="Helvetica,sans-Serif" font-size="9.00">CPlan</text>
<polyline fill="none" stroke="black" points="75,-67 207,-67 "/>
<text text-anchor="start" x="83" y="-55.8" font-family="Helvetica,sans-Serif" font-size="9.00">&#45; m_fail</text>
<text text-anchor="start" x="83" y="-45.8" font-family="Helvetica,sans-Serif" font-size="9.00">&#45; m_successful</text>
<text text-anchor="start" x="83" y="-35.8" font-family="Helvetica,sans-Serif" font-size="9.00">&#45; m_trigger</text>
<polyline fill="none" stroke="black" points="75,-29 207,-29 "/>
<text text-anchor="start" x="83" y="-17.8" font-family="Helvetica,sans-Serif" font-size="9.00">+ CPlan()</text>
<text text-anchor="start" x="83" y="-7.8" font-family="Helvetica,sans-Serif" font-size="9.00">+ toString()</text>
</g>
<!-- Node2 -->
<g id="node2" class="node"><title>Node2</title>
<g id="a_node2"><a xlink:href="../../de/dd4/interfaceorg_1_1lightjason_1_1rest_1_1container_1_1IPlan.html" target="_top" xlink:title="plan container interface ">
<polygon fill="none" stroke="black" points="0,-143 0,-207 132,-207 132,-143 0,-143"/>
<text text-anchor="start" x="8" y="-195.8" font-family="Helvetica,sans-Serif" font-size="9.00">org.lightjason.rest.container.</text>
<text text-anchor="middle" x="66" y="-185.8" font-family="Helvetica,sans-Serif" font-size="9.00">IPlan</text>
<polyline fill="none" stroke="black" points="0,-179 132,-179 "/>
<text text-anchor="middle" x="66" y="-167.8" font-family="Helvetica,sans-Serif" font-size="9.00"> </text>
<polyline fill="none" stroke="black" points="0,-161 132,-161 "/>
<text text-anchor="middle" x="66" y="-149.8" font-family="Helvetica,sans-Serif" font-size="9.00"> </text>
</a>
</g>
</g>
<!-- Node2&#45;&gt;Node1 -->
<g id="edge1" class="edge"><title>Node2&#45;&gt;Node1</title>
<path fill="none" stroke="midnightblue" d="M89.9487,-134.086C97.3366,-121.772 105.535,-108.108 113.162,-95.3969"/>
<polygon fill="none" stroke="midnightblue" points="86.876,-132.404 84.7322,-142.78 92.8784,-136.005 86.876,-132.404"/>
</g>
<!-- Node3 -->
<g id="node3" class="node"><title>Node3</title>
<g id="a_node3"><a xlink:href="../../d6/d13/interfaceorg_1_1lightjason_1_1rest_1_1container_1_1ITerm.html" target="_top" xlink:title="term interface ">
<polygon fill="none" stroke="black" points="150,-143 150,-207 282,-207 282,-143 150,-143"/>
<text text-anchor="start" x="158" y="-195.8" font-family="Helvetica,sans-Serif" font-size="9.00">org.lightjason.rest.container.</text>
<text text-anchor="middle" x="216" y="-185.8" font-family="Helvetica,sans-Serif" font-size="9.00">ITerm</text>
<polyline fill="none" stroke="black" points="150,-179 282,-179 "/>
<text text-anchor="middle" x="216" y="-167.8" font-family="Helvetica,sans-Serif" font-size="9.00"> </text>
<polyline fill="none" stroke="black" points="150,-161 282,-161 "/>
<text text-anchor="middle" x="216" y="-149.8" font-family="Helvetica,sans-Serif" font-size="9.00"> </text>
</a>
</g>
</g>
<!-- Node3&#45;&gt;Node1 -->
<g id="edge2" class="edge"><title>Node3&#45;&gt;Node1</title>
<path fill="none" stroke="#404040" d="M197.268,-142.78C190.556,-131.594 182.764,-118.607 175.157,-105.928"/>
<polygon fill="none" stroke="#404040" points="175.012,-105.687 168.495,-102.6 168.838,-95.3969 175.355,-98.4839 175.012,-105.687"/>
<text text-anchor="middle" x="205.5" y="-116.8" font-family="Helvetica,sans-Serif" font-size="9.00"> &#45;m_literal</text>
</g>
</g>
</svg>
