<?xml version="1.0" encoding="UTF-8" standalone="no"?>
<!DOCTYPE svg PUBLIC "-//W3C//DTD SVG 1.1//EN"
 "http://www.w3.org/Graphics/SVG/1.1/DTD/svg11.dtd">
<!-- Generated by graphviz version 2.36.0 (20140111.2315)
 -->
<!-- Title: org.lightjason.rest.provider.CExecution.parseterm Pages: 1 -->
<svg width="466pt" height="177pt"
 viewBox="0.00 0.00 466.00 177.00" xmlns="http://www.w3.org/2000/svg" xmlns:xlink="http://www.w3.org/1999/xlink">
<g id="graph0" class="graph" transform="scale(1 1) rotate(0) translate(4 173)">
<title>org.lightjason.rest.provider.CExecution.parseterm</title>
<!-- Node1 -->
<g id="node1" class="node"><title>Node1</title>
<polygon fill="#bfbfbf" stroke="black" points="0,-70 0,-98 128,-98 128,-70 0,-70"/>
<text text-anchor="start" x="8" y="-86.8" font-family="Helvetica,sans-Serif" font-size="9.00">org.lightjason.rest.provider.</text>
<text text-anchor="middle" x="64" y="-76.8" font-family="Helvetica,sans-Serif" font-size="9.00">CExecution.parseterm</text>
</g>
<!-- Node2 -->
<g id="node2" class="node"><title>Node2</title>
<g id="a_node2"><a xlink:href="../../d3/ddf/classorg_1_1lightjason_1_1rest_1_1provider_1_1CExecution.html#a3d90b2a5ed87573a49cba6eeff549b0b" target="_top" xlink:title="parses a string to a term set ">
<polygon fill="none" stroke="black" points="164,-70 164,-98 294,-98 294,-70 164,-70"/>
<text text-anchor="start" x="172" y="-86.8" font-family="Helvetica,sans-Serif" font-size="9.00">org.lightjason.rest.provider.</text>
<text text-anchor="middle" x="229" y="-76.8" font-family="Helvetica,sans-Serif" font-size="9.00">CExecution.parsestringterm</text>
</a>
</g>
</g>
<!-- Node1&#45;&gt;Node2 -->
<g id="edge1" class="edge"><title>Node1&#45;&gt;Node2</title>
<path fill="none" stroke="midnightblue" d="M138.027,-84C146.621,-84 155.342,-84 163.802,-84"/>
<polygon fill="midnightblue" stroke="midnightblue" points="138.02,-80.5001 128.02,-84 138.02,-87.5001 138.02,-80.5001"/>
</g>
<!-- Node3 -->
<g id="node3" class="node"><title>Node3</title>
<g id="a_node3"><a xlink:href="../../d3/ddf/classorg_1_1lightjason_1_1rest_1_1provider_1_1CExecution.html#acfc466d67da123d68850e8e806a0a9bb" target="_top" xlink:title="add / deletes an belief ">
<polygon fill="none" stroke="black" points="330,-141 330,-169 458,-169 458,-141 330,-141"/>
<text text-anchor="start" x="338" y="-157.8" font-family="Helvetica,sans-Serif" font-size="9.00">org.lightjason.rest.provider.</text>
<text text-anchor="middle" x="394" y="-147.8" font-family="Helvetica,sans-Serif" font-size="9.00">CExecution.belief</text>
</a>
</g>
</g>
<!-- Node2&#45;&gt;Node3 -->
<g id="edge2" class="edge"><title>Node2&#45;&gt;Node3</title>
<path fill="none" stroke="midnightblue" d="M267.659,-102.521C286.27,-111.463 309.156,-122.146 330,-131 337.972,-134.386 346.599,-137.82 354.837,-140.991"/>
<polygon fill="midnightblue" stroke="midnightblue" points="269.149,-99.3539 258.622,-98.155 266.104,-105.657 269.149,-99.3539"/>
</g>
<!-- Node4 -->
<g id="node4" class="node"><title>Node4</title>
<g id="a_node4"><a xlink:href="../../d3/ddf/classorg_1_1lightjason_1_1rest_1_1provider_1_1CExecution.html#a52798d2fb3cb928d38cb83b9b65927a6" target="_top" xlink:title="trigger a goal ">
<polygon fill="none" stroke="black" points="330,-94 330,-122 458,-122 458,-94 330,-94"/>
<text text-anchor="start" x="338" y="-110.8" font-family="Helvetica,sans-Serif" font-size="9.00">org.lightjason.rest.provider.</text>
<text text-anchor="middle" x="394" y="-100.8" font-family="Helvetica,sans-Serif" font-size="9.00">CExecution.goaltrigger</text>
</a>
</g>
</g>
<!-- Node2&#45;&gt;Node4 -->
<g id="edge3" class="edge"><title>Node2&#45;&gt;Node4</title>
<path fill="none" stroke="midnightblue" d="M304.351,-94.9474C312.869,-96.2016 321.493,-97.4713 329.845,-98.7011"/>
<polygon fill="midnightblue" stroke="midnightblue" points="304.825,-91.4795 294.422,-93.4854 303.805,-98.4049 304.825,-91.4795"/>
</g>
<!-- Node5 -->
<g id="node5" class="node"><title>Node5</title>
<g id="a_node5"><a xlink:href="../../d3/ddf/classorg_1_1lightjason_1_1rest_1_1provider_1_1CExecution.html#ada3a836cd7581dc544df18c455fa9699" target="_top" xlink:title="runs sleeping call ">
<polygon fill="none" stroke="black" points="330,-47 330,-75 458,-75 458,-47 330,-47"/>
<text text-anchor="start" x="338" y="-63.8" font-family="Helvetica,sans-Serif" font-size="9.00">org.lightjason.rest.provider.</text>
<text text-anchor="middle" x="394" y="-53.8" font-family="Helvetica,sans-Serif" font-size="9.00">CExecution.sleep</text>
</a>
</g>
</g>
<!-- Node2&#45;&gt;Node5 -->
<g id="edge4" class="edge"><title>Node2&#45;&gt;Node5</title>
<path fill="none" stroke="midnightblue" d="M304.351,-73.5087C312.869,-72.3068 321.493,-71.09 329.845,-69.9114"/>
<polygon fill="midnightblue" stroke="midnightblue" points="303.835,-70.0468 294.422,-74.9098 304.813,-76.9782 303.835,-70.0468"/>
</g>
<!-- Node6 -->
<g id="node6" class="node"><title>Node6</title>
<g id="a_node6"><a xlink:href="../../d3/ddf/classorg_1_1lightjason_1_1rest_1_1provider_1_1CExecution.html#af56c18e88bd1365c6f7ae3fb63dc9118" target="_top" xlink:title="runs wake&#45;up calls ">
<polygon fill="none" stroke="black" points="330,-0 330,-28 458,-28 458,-0 330,-0"/>
<text text-anchor="start" x="338" y="-16.8" font-family="Helvetica,sans-Serif" font-size="9.00">org.lightjason.rest.provider.</text>
<text text-anchor="middle" x="394" y="-6.8" font-family="Helvetica,sans-Serif" font-size="9.00">CExecution.wakeup</text>
</a>
</g>
</g>
<!-- Node2&#45;&gt;Node6 -->
<g id="edge5" class="edge"><title>Node2&#45;&gt;Node6</title>
<path fill="none" stroke="midnightblue" d="M268.357,-65.6238C286.856,-56.9494 309.444,-46.6317 330,-38 337.986,-34.6467 346.619,-31.2266 354.858,-28.0586"/>
<polygon fill="midnightblue" stroke="midnightblue" points="266.641,-62.563 259.088,-69.9925 269.625,-68.8949 266.641,-62.563"/>
</g>
</g>
</svg>
