<?xml version="1.0" encoding="UTF-8" standalone="no"?>
<!DOCTYPE svg PUBLIC "-//W3C//DTD SVG 1.1//EN"
 "http://www.w3.org/Graphics/SVG/1.1/DTD/svg11.dtd">
<!-- Generated by graphviz version 2.36.0 (20140111.2315)
 -->
<!-- Title: org.lightjason.rest.provider.CExecution.sleep Pages: 1 -->
<svg width="466pt" height="36pt"
 viewBox="0.00 0.00 466.00 36.00" xmlns="http://www.w3.org/2000/svg" xmlns:xlink="http://www.w3.org/1999/xlink">
<g id="graph0" class="graph" transform="scale(1 1) rotate(0) translate(4 32)">
<title>org.lightjason.rest.provider.CExecution.sleep</title>
<!-- Node1 -->
<g id="node1" class="node"><title>Node1</title>
<polygon fill="#bfbfbf" stroke="black" points="0,-0 0,-28 128,-28 128,-0 0,-0"/>
<text text-anchor="start" x="8" y="-16.8" font-family="Helvetica,sans-Serif" font-size="9.00">org.lightjason.rest.provider.</text>
<text text-anchor="middle" x="64" y="-6.8" font-family="Helvetica,sans-Serif" font-size="9.00">CExecution.sleep</text>
</g>
<!-- Node2 -->
<g id="node2" class="node"><title>Node2</title>
<g id="a_node2"><a xlink:href="../../d3/ddf/classorg_1_1lightjason_1_1rest_1_1provider_1_1CExecution.html#a3d90b2a5ed87573a49cba6eeff549b0b" target="_top" xlink:title="parses a string to a term set ">
<polygon fill="none" stroke="black" points="164,-0 164,-28 294,-28 294,-0 164,-0"/>
<text text-anchor="start" x="172" y="-16.8" font-family="Helvetica,sans-Serif" font-size="9.00">org.lightjason.rest.provider.</text>
<text text-anchor="middle" x="229" y="-6.8" font-family="Helvetica,sans-Serif" font-size="9.00">CExecution.parsestringterm</text>
</a>
</g>
</g>
<!-- Node1&#45;&gt;Node2 -->
<g id="edge1" class="edge"><title>Node1&#45;&gt;Node2</title>
<path fill="none" stroke="midnightblue" d="M128.02,-14C136.455,-14 145.169,-14 153.774,-14"/>
<polygon fill="midnightblue" stroke="midnightblue" points="153.802,-17.5001 163.802,-14 153.802,-10.5001 153.802,-17.5001"/>
</g>
<!-- Node3 -->
<g id="node3" class="node"><title>Node3</title>
<g id="a_node3"><a xlink:href="../../d3/ddf/classorg_1_1lightjason_1_1rest_1_1provider_1_1CExecution.html#a5669fca814b63dbb0d0429169942fc79" target="_top" xlink:title="parse any string data into a term ">
<polygon fill="none" stroke="black" points="330,-0 330,-28 458,-28 458,-0 330,-0"/>
<text text-anchor="start" x="338" y="-16.8" font-family="Helvetica,sans-Serif" font-size="9.00">org.lightjason.rest.provider.</text>
<text text-anchor="middle" x="394" y="-6.8" font-family="Helvetica,sans-Serif" font-size="9.00">CExecution.parseterm</text>
</a>
</g>
</g>
<!-- Node2&#45;&gt;Node3 -->
<g id="edge2" class="edge"><title>Node2&#45;&gt;Node3</title>
<path fill="none" stroke="midnightblue" d="M294.422,-14C302.71,-14 311.244,-14 319.661,-14"/>
<polygon fill="midnightblue" stroke="midnightblue" points="319.845,-17.5001 329.845,-14 319.845,-10.5001 319.845,-17.5001"/>
</g>
</g>
</svg>
