<?xml version="1.0" encoding="UTF-8" standalone="no"?>
<!DOCTYPE svg PUBLIC "-//W3C//DTD SVG 1.1//EN"
 "http://www.w3.org/Graphics/SVG/1.1/DTD/svg11.dtd">
<!-- Generated by graphviz version 2.36.0 (20140111.2315)
 -->
<!-- Title: org.lightjason.rest.provider.CExecution.belief Pages: 1 -->
<svg width="536pt" height="120pt"
 viewBox="0.00 0.00 536.00 120.00" xmlns="http://www.w3.org/2000/svg" xmlns:xlink="http://www.w3.org/1999/xlink">
<g id="graph0" class="graph" transform="scale(1 1) rotate(0) translate(4 116)">
<title>org.lightjason.rest.provider.CExecution.belief</title>
<!-- Node1 -->
<g id="node1" class="node"><title>Node1</title>
<polygon fill="#bfbfbf" stroke="black" points="0,-42 0,-70 128,-70 128,-42 0,-42"/>
<text text-anchor="start" x="8" y="-58.8" font-family="Helvetica,sans-Serif" font-size="9.00">org.lightjason.rest.provider.</text>
<text text-anchor="middle" x="64" y="-48.8" font-family="Helvetica,sans-Serif" font-size="9.00">CExecution.belief</text>
</g>
<!-- Node2 -->
<g id="node2" class="node"><title>Node2</title>
<g id="a_node2"><a xlink:href="../../d3/ddf/classorg_1_1lightjason_1_1rest_1_1provider_1_1CExecution.html#ae590b4d17cbd20b80cc5b2ac44b2f1f6" target="_top" xlink:title="org.lightjason.rest.provider.\lCExecution.actionconsumer">
<polygon fill="none" stroke="black" points="198.5,-84 198.5,-112 329.5,-112 329.5,-84 198.5,-84"/>
<text text-anchor="start" x="206.5" y="-100.8" font-family="Helvetica,sans-Serif" font-size="9.00">org.lightjason.rest.provider.</text>
<text text-anchor="middle" x="264" y="-90.8" font-family="Helvetica,sans-Serif" font-size="9.00">CExecution.actionconsumer</text>
</a>
</g>
</g>
<!-- Node1&#45;&gt;Node2 -->
<g id="edge1" class="edge"><title>Node1&#45;&gt;Node2</title>
<path fill="none" stroke="midnightblue" d="M128.193,-69.4045C147.363,-73.4709 168.603,-77.9764 188.446,-82.1854"/>
<polygon fill="midnightblue" stroke="midnightblue" points="187.858,-85.6386 198.366,-84.2899 189.31,-78.7909 187.858,-85.6386"/>
</g>
<!-- Node3 -->
<g id="node3" class="node"><title>Node3</title>
<g id="a_node3"><a xlink:href="../../d5/d34/classorg_1_1lightjason_1_1rest_1_1CCommon.html#a48bc7b9b1a3bc8535487b8ea114f517a" target="_top" xlink:title="returns the language depend string on any object ">
<polygon fill="none" stroke="black" points="164,-47 164,-65 364,-65 364,-47 164,-47"/>
<text text-anchor="middle" x="264" y="-53.8" font-family="Helvetica,sans-Serif" font-size="9.00">org.lightjason.rest.CCommon.languagestring</text>
</a>
</g>
</g>
<!-- Node1&#45;&gt;Node3 -->
<g id="edge2" class="edge"><title>Node1&#45;&gt;Node3</title>
<path fill="none" stroke="midnightblue" d="M128.193,-56C136.409,-56 145.005,-56 153.708,-56"/>
<polygon fill="midnightblue" stroke="midnightblue" points="153.958,-59.5001 163.958,-56 153.958,-52.5001 153.958,-59.5001"/>
</g>
<!-- Node4 -->
<g id="node4" class="node"><title>Node4</title>
<g id="a_node4"><a xlink:href="../../d3/ddf/classorg_1_1lightjason_1_1rest_1_1provider_1_1CExecution.html#a3d90b2a5ed87573a49cba6eeff549b0b" target="_top" xlink:title="parses a string to a term set ">
<polygon fill="none" stroke="black" points="199,-0 199,-28 329,-28 329,-0 199,-0"/>
<text text-anchor="start" x="207" y="-16.8" font-family="Helvetica,sans-Serif" font-size="9.00">org.lightjason.rest.provider.</text>
<text text-anchor="middle" x="264" y="-6.8" font-family="Helvetica,sans-Serif" font-size="9.00">CExecution.parsestringterm</text>
</a>
</g>
</g>
<!-- Node1&#45;&gt;Node4 -->
<g id="edge3" class="edge"><title>Node1&#45;&gt;Node4</title>
<path fill="none" stroke="midnightblue" d="M128.193,-42.5955C147.46,-38.5085 168.818,-33.9781 188.746,-29.7508"/>
<polygon fill="midnightblue" stroke="midnightblue" points="189.652,-33.1367 198.708,-27.6378 188.199,-26.2891 189.652,-33.1367"/>
</g>
<!-- Node5 -->
<g id="node5" class="node"><title>Node5</title>
<g id="a_node5"><a xlink:href="../../d3/ddf/classorg_1_1lightjason_1_1rest_1_1provider_1_1CExecution.html#a5669fca814b63dbb0d0429169942fc79" target="_top" xlink:title="parse any string data into a term ">
<polygon fill="none" stroke="black" points="400,-0 400,-28 528,-28 528,-0 400,-0"/>
<text text-anchor="start" x="408" y="-16.8" font-family="Helvetica,sans-Serif" font-size="9.00">org.lightjason.rest.provider.</text>
<text text-anchor="middle" x="464" y="-6.8" font-family="Helvetica,sans-Serif" font-size="9.00">CExecution.parseterm</text>
</a>
</g>
</g>
<!-- Node4&#45;&gt;Node5 -->
<g id="edge4" class="edge"><title>Node4&#45;&gt;Node5</title>
<path fill="none" stroke="midnightblue" d="M329.011,-14C348.351,-14 369.734,-14 389.633,-14"/>
<polygon fill="midnightblue" stroke="midnightblue" points="389.885,-17.5001 399.885,-14 389.885,-10.5001 389.885,-17.5001"/>
</g>
</g>
</svg>
