<?xml version="1.0" encoding="UTF-8" standalone="no"?>
<!DOCTYPE svg PUBLIC "-//W3C//DTD SVG 1.1//EN"
 "http://www.w3.org/Graphics/SVG/1.1/DTD/svg11.dtd">
<!-- Generated by graphviz version 2.36.0 (20140111.2315)
 -->
<!-- Title: org.lightjason.rest.provider.CExecution.belief Pages: 1 -->
<!--zoomable 120 -->
<svg id="main" version="1.1" xmlns="http://www.w3.org/2000/svg" xmlns:xlink="http://www.w3.org/1999/xlink" xml:space="preserve" onload="init(evt)">
<style type="text/css"><![CDATA[
.edge:hover path { stroke: red; }
.edge:hover polygon { stroke: red; fill: red; }
]]></style>
<script type="text/javascript"><![CDATA[
var edges = document.getElementsByTagName('g');
if (edges && edges.length) {
  for (var i=0;i<edges.length;i++) {
    if (edges[i].id.substr(0,4)=='edge') {
      edges[i].setAttribute('class','edge');
    }
  }
}
]]></script>
        <defs>
                <circle id="rim" cx="0" cy="0" r="7"/>
                <circle id="rim2" cx="0" cy="0" r="3.5"/>
                <g id="zoomPlus">
                        <use xlink:href="#rim" fill="#404040">
                                <set attributeName="fill" to="#808080" begin="zoomplus.mouseover" end="zoomplus.mouseout"/>
                        </use>
                        <path d="M-4,0h8M0,-4v8" fill="none" stroke="white" stroke-width="1.5" pointer-events="none"/>
                </g>
                <g id="zoomMin">
                        <use xlink:href="#rim" fill="#404040">
                                <set attributeName="fill" to="#808080" begin="zoomminus.mouseover" end="zoomminus.mouseout"/>
                        </use>
                        <path d="M-4,0h8" fill="none" stroke="white" stroke-width="1.5" pointer-events="none"/>
                </g>
                <g id="dirArrow">
                        <path fill="none" stroke="white" stroke-width="1.5" d="M0,-3.0v7 M-2.5,-0.5L0,-3.0L2.5,-0.5"/>
                </g>
               <g id="resetDef">
                       <use xlink:href="#rim2" fill="#404040">
                               <set attributeName="fill" to="#808080" begin="reset.mouseover" end="reset.mouseout"/>
                       </use>
               </g>
        </defs>

<script type="text/javascript">
var viewWidth = 536;
var viewHeight = 120;
var sectionId = 'dynsection-3';
</script>
<script xlink:href="../../svgpan.js"/>
<svg id="graph" class="graph">
<g id="viewport">
<title>org.lightjason.rest.provider.CExecution.belief</title>
<!-- Node1 -->
<g id="node1" class="node"><title>Node1</title>
<polygon fill="#bfbfbf" stroke="black" points="0,-42 0,-70 128,-70 128,-42 0,-42"/>
<text text-anchor="start" x="8" y="-58.8" font-family="Helvetica,sans-Serif" font-size="9.00">org.lightjason.rest.provider.</text>
<text text-anchor="middle" x="64" y="-48.8" font-family="Helvetica,sans-Serif" font-size="9.00">CExecution.belief</text>
</g>
<!-- Node2 -->
<g id="node2" class="node"><title>Node2</title>
<g id="a_node2"><a xlink:href="../../d3/ddf/classorg_1_1lightjason_1_1rest_1_1provider_1_1CExecution.html#ae590b4d17cbd20b80cc5b2ac44b2f1f6" target="_top" xlink:title="org.lightjason.rest.provider.\lCExecution.actionconsumer">
<polygon fill="none" stroke="black" points="198.5,-84 198.5,-112 329.5,-112 329.5,-84 198.5,-84"/>
<text text-anchor="start" x="206.5" y="-100.8" font-family="Helvetica,sans-Serif" font-size="9.00">org.lightjason.rest.provider.</text>
<text text-anchor="middle" x="264" y="-90.8" font-family="Helvetica,sans-Serif" font-size="9.00">CExecution.actionconsumer</text>
</a>
</g>
</g>
<!-- Node1&#45;&gt;Node2 -->
<g id="edge1" class="edge"><title>Node1&#45;&gt;Node2</title>
<path fill="none" stroke="midnightblue" d="M128.193,-69.4045C147.363,-73.4709 168.603,-77.9764 188.446,-82.1854"/>
<polygon fill="midnightblue" stroke="midnightblue" points="187.858,-85.6386 198.366,-84.2899 189.31,-78.7909 187.858,-85.6386"/>
</g>
<!-- Node3 -->
<g id="node3" class="node"><title>Node3</title>
<g id="a_node3"><a xlink:href="../../d5/d34/classorg_1_1lightjason_1_1rest_1_1CCommon.html#a48bc7b9b1a3bc8535487b8ea114f517a" target="_top" xlink:title="returns the language depend string on any object ">
<polygon fill="none" stroke="black" points="164,-47 164,-65 364,-65 364,-47 164,-47"/>
<text text-anchor="middle" x="264" y="-53.8" font-family="Helvetica,sans-Serif" font-size="9.00">org.lightjason.rest.CCommon.languagestring</text>
</a>
</g>
</g>
<!-- Node1&#45;&gt;Node3 -->
<g id="edge2" class="edge"><title>Node1&#45;&gt;Node3</title>
<path fill="none" stroke="midnightblue" d="M128.193,-56C136.409,-56 145.005,-56 153.708,-56"/>
<polygon fill="midnightblue" stroke="midnightblue" points="153.958,-59.5001 163.958,-56 153.958,-52.5001 153.958,-59.5001"/>
</g>
<!-- Node4 -->
<g id="node4" class="node"><title>Node4</title>
<g id="a_node4"><a xlink:href="../../d3/ddf/classorg_1_1lightjason_1_1rest_1_1provider_1_1CExecution.html#a3d90b2a5ed87573a49cba6eeff549b0b" target="_top" xlink:title="parses a string to a term set ">
<polygon fill="none" stroke="black" points="199,-0 199,-28 329,-28 329,-0 199,-0"/>
<text text-anchor="start" x="207" y="-16.8" font-family="Helvetica,sans-Serif" font-size="9.00">org.lightjason.rest.provider.</text>
<text text-anchor="middle" x="264" y="-6.8" font-family="Helvetica,sans-Serif" font-size="9.00">CExecution.parsestringterm</text>
</a>
</g>
</g>
<!-- Node1&#45;&gt;Node4 -->
<g id="edge3" class="edge"><title>Node1&#45;&gt;Node4</title>
<path fill="none" stroke="midnightblue" d="M128.193,-42.5955C147.46,-38.5085 168.818,-33.9781 188.746,-29.7508"/>
<polygon fill="midnightblue" stroke="midnightblue" points="189.652,-33.1367 198.708,-27.6378 188.199,-26.2891 189.652,-33.1367"/>
</g>
<!-- Node5 -->
<g id="node5" class="node"><title>Node5</title>
<g id="a_node5"><a xlink:href="../../d3/ddf/classorg_1_1lightjason_1_1rest_1_1provider_1_1CExecution.html#a5669fca814b63dbb0d0429169942fc79" target="_top" xlink:title="parse any string data into a term ">
<polygon fill="none" stroke="black" points="400,-0 400,-28 528,-28 528,-0 400,-0"/>
<text text-anchor="start" x="408" y="-16.8" font-family="Helvetica,sans-Serif" font-size="9.00">org.lightjason.rest.provider.</text>
<text text-anchor="middle" x="464" y="-6.8" font-family="Helvetica,sans-Serif" font-size="9.00">CExecution.parseterm</text>
</a>
</g>
</g>
<!-- Node4&#45;&gt;Node5 -->
<g id="edge4" class="edge"><title>Node4&#45;&gt;Node5</title>
<path fill="none" stroke="midnightblue" d="M329.011,-14C348.351,-14 369.734,-14 389.633,-14"/>
<polygon fill="midnightblue" stroke="midnightblue" points="389.885,-17.5001 399.885,-14 389.885,-10.5001 389.885,-17.5001"/>
</g>
</g>
</svg>
        <g id="navigator" transform="translate(0 0)" fill="#404254">
                <rect fill="#f2f5e9" fill-opacity="0.5" stroke="#606060" stroke-width=".5" x="0" y="0" width="60" height="60"/>
                <use id="zoomplus" xlink:href="#zoomPlus" x="17" y="9" onmousedown="handleZoom(evt,'in')"/>
                <use id="zoomminus" xlink:href="#zoomMin" x="42" y="9" onmousedown="handleZoom(evt,'out')"/>
                <use id="reset" xlink:href="#resetDef" x="30" y="36" onmousedown="handleReset()"/>
                <g id="arrowUp" xlink:href="#dirArrow" transform="translate(30 24)" onmousedown="handlePan(0,-1)">
                  <use xlink:href="#rim" fill="#404040">
                        <set attributeName="fill" to="#808080" begin="arrowUp.mouseover" end="arrowUp.mouseout"/>
                  </use>
                  <path fill="none" stroke="white" stroke-width="1.5" d="M0,-3.0v7 M-2.5,-0.5L0,-3.0L2.5,-0.5"/>
                </g>
                <g id="arrowRight" xlink:href="#dirArrow" transform="rotate(90) translate(36 -43)" onmousedown="handlePan(1,0)">
                  <use xlink:href="#rim" fill="#404040">
                        <set attributeName="fill" to="#808080" begin="arrowRight.mouseover" end="arrowRight.mouseout"/>
                  </use>
                  <path fill="none" stroke="white" stroke-width="1.5" d="M0,-3.0v7 M-2.5,-0.5L0,-3.0L2.5,-0.5"/>
                </g>
                <g id="arrowDown" xlink:href="#dirArrow" transform="rotate(180) translate(-30 -48)" onmousedown="handlePan(0,1)">
                  <use xlink:href="#rim" fill="#404040">
                        <set attributeName="fill" to="#808080" begin="arrowDown.mouseover" end="arrowDown.mouseout"/>
                  </use>
                  <path fill="none" stroke="white" stroke-width="1.5" d="M0,-3.0v7 M-2.5,-0.5L0,-3.0L2.5,-0.5"/>
                </g>
                <g id="arrowLeft" xlink:href="#dirArrow" transform="rotate(270) translate(-36 17)" onmousedown="handlePan(-1,0)">
                  <use xlink:href="#rim" fill="#404040">
                        <set attributeName="fill" to="#808080" begin="arrowLeft.mouseover" end="arrowLeft.mouseout"/>
                  </use>
                  <path fill="none" stroke="white" stroke-width="1.5" d="M0,-3.0v7 M-2.5,-0.5L0,-3.0L2.5,-0.5"/>
                </g>
        </g>
        <svg viewBox="0 0 15 15" width="100%" height="30px" preserveAspectRatio="xMaxYMin meet">
         <g id="arrow_out" transform="scale(0.3 0.3)">
          <a xlink:href="classorg_1_1lightjason_1_1rest_1_1provider_1_1CExecution_acfc466d67da123d68850e8e806a0a9bb_cgraph_org.svg" target="_base">
           <rect id="button" ry="5" rx="5" y="6" x="6" height="38" width="38"
                fill="#f2f5e9" fill-opacity="0.5" stroke="#606060" stroke-width="1.0"/>
           <path id="arrow"
             d="M 11.500037,31.436501 C 11.940474,20.09759 22.043105,11.32322 32.158766,21.979434 L 37.068811,17.246167 C 37.068811,17.246167 37.088388,32 37.088388,32 L 22.160133,31.978069 C 22.160133,31.978069 26.997745,27.140456 26.997745,27.140456 C 18.528582,18.264221 13.291696,25.230495 11.500037,31.436501 z"
             style="fill:#404040;"/>
          </a>
         </g>
        </svg>
</svg>
