<?xml version="1.0" encoding="UTF-8" standalone="no"?>
<!DOCTYPE svg PUBLIC "-//W3C//DTD SVG 1.1//EN"
 "http://www.w3.org/Graphics/SVG/1.1/DTD/svg11.dtd">
<!-- Generated by graphviz version 2.36.0 (20140111.2315)
 -->
<!-- Title: org.lightjason.rest.provider.CExecution.parsestringterm Pages: 1 -->
<svg width="302pt" height="177pt"
 viewBox="0.00 0.00 302.00 177.00" xmlns="http://www.w3.org/2000/svg" xmlns:xlink="http://www.w3.org/1999/xlink">
<g id="graph0" class="graph" transform="scale(1 1) rotate(0) translate(4 173)">
<title>org.lightjason.rest.provider.CExecution.parsestringterm</title>
<!-- Node1 -->
<g id="node1" class="node"><title>Node1</title>
<polygon fill="#bfbfbf" stroke="black" points="0,-70 0,-98 130,-98 130,-70 0,-70"/>
<text text-anchor="start" x="8" y="-86.8" font-family="Helvetica,sans-Serif" font-size="9.00">org.lightjason.rest.provider.</text>
<text text-anchor="middle" x="65" y="-76.8" font-family="Helvetica,sans-Serif" font-size="9.00">CExecution.parsestringterm</text>
</g>
<!-- Node2 -->
<g id="node2" class="node"><title>Node2</title>
<g id="a_node2"><a xlink:href="../../d3/ddf/classorg_1_1lightjason_1_1rest_1_1provider_1_1CExecution.html#acfc466d67da123d68850e8e806a0a9bb" target="_top" xlink:title="add / deletes an belief ">
<polygon fill="none" stroke="black" points="166,-141 166,-169 294,-169 294,-141 166,-141"/>
<text text-anchor="start" x="174" y="-157.8" font-family="Helvetica,sans-Serif" font-size="9.00">org.lightjason.rest.provider.</text>
<text text-anchor="middle" x="230" y="-147.8" font-family="Helvetica,sans-Serif" font-size="9.00">CExecution.belief</text>
</a>
</g>
</g>
<!-- Node1&#45;&gt;Node2 -->
<g id="edge1" class="edge"><title>Node1&#45;&gt;Node2</title>
<path fill="none" stroke="midnightblue" d="M103.659,-102.521C122.27,-111.463 145.156,-122.146 166,-131 173.972,-134.386 182.599,-137.82 190.837,-140.991"/>
<polygon fill="midnightblue" stroke="midnightblue" points="105.149,-99.3539 94.6221,-98.155 102.104,-105.657 105.149,-99.3539"/>
</g>
<!-- Node3 -->
<g id="node3" class="node"><title>Node3</title>
<g id="a_node3"><a xlink:href="../../d3/ddf/classorg_1_1lightjason_1_1rest_1_1provider_1_1CExecution.html#a52798d2fb3cb928d38cb83b9b65927a6" target="_top" xlink:title="trigger a goal ">
<polygon fill="none" stroke="black" points="166,-94 166,-122 294,-122 294,-94 166,-94"/>
<text text-anchor="start" x="174" y="-110.8" font-family="Helvetica,sans-Serif" font-size="9.00">org.lightjason.rest.provider.</text>
<text text-anchor="middle" x="230" y="-100.8" font-family="Helvetica,sans-Serif" font-size="9.00">CExecution.goaltrigger</text>
</a>
</g>
</g>
<!-- Node1&#45;&gt;Node3 -->
<g id="edge2" class="edge"><title>Node1&#45;&gt;Node3</title>
<path fill="none" stroke="midnightblue" d="M140.351,-94.9474C148.869,-96.2016 157.493,-97.4713 165.845,-98.7011"/>
<polygon fill="midnightblue" stroke="midnightblue" points="140.825,-91.4795 130.422,-93.4854 139.805,-98.4049 140.825,-91.4795"/>
</g>
<!-- Node4 -->
<g id="node4" class="node"><title>Node4</title>
<g id="a_node4"><a xlink:href="../../d3/ddf/classorg_1_1lightjason_1_1rest_1_1provider_1_1CExecution.html#ada3a836cd7581dc544df18c455fa9699" target="_top" xlink:title="runs sleeping call ">
<polygon fill="none" stroke="black" points="166,-47 166,-75 294,-75 294,-47 166,-47"/>
<text text-anchor="start" x="174" y="-63.8" font-family="Helvetica,sans-Serif" font-size="9.00">org.lightjason.rest.provider.</text>
<text text-anchor="middle" x="230" y="-53.8" font-family="Helvetica,sans-Serif" font-size="9.00">CExecution.sleep</text>
</a>
</g>
</g>
<!-- Node1&#45;&gt;Node4 -->
<g id="edge3" class="edge"><title>Node1&#45;&gt;Node4</title>
<path fill="none" stroke="midnightblue" d="M140.351,-73.5087C148.869,-72.3068 157.493,-71.09 165.845,-69.9114"/>
<polygon fill="midnightblue" stroke="midnightblue" points="139.835,-70.0468 130.422,-74.9098 140.813,-76.9782 139.835,-70.0468"/>
</g>
<!-- Node5 -->
<g id="node5" class="node"><title>Node5</title>
<g id="a_node5"><a xlink:href="../../d3/ddf/classorg_1_1lightjason_1_1rest_1_1provider_1_1CExecution.html#af56c18e88bd1365c6f7ae3fb63dc9118" target="_top" xlink:title="runs wake&#45;up calls ">
<polygon fill="none" stroke="black" points="166,-0 166,-28 294,-28 294,-0 166,-0"/>
<text text-anchor="start" x="174" y="-16.8" font-family="Helvetica,sans-Serif" font-size="9.00">org.lightjason.rest.provider.</text>
<text text-anchor="middle" x="230" y="-6.8" font-family="Helvetica,sans-Serif" font-size="9.00">CExecution.wakeup</text>
</a>
</g>
</g>
<!-- Node1&#45;&gt;Node5 -->
<g id="edge4" class="edge"><title>Node1&#45;&gt;Node5</title>
<path fill="none" stroke="midnightblue" d="M104.357,-65.6238C122.856,-56.9494 145.444,-46.6317 166,-38 173.986,-34.6467 182.619,-31.2266 190.858,-28.0586"/>
<polygon fill="midnightblue" stroke="midnightblue" points="102.641,-62.563 95.0876,-69.9925 105.625,-68.8949 102.641,-62.563"/>
</g>
</g>
</svg>
