<?xml version="1.0" encoding="UTF-8" standalone="no"?>
<!DOCTYPE svg PUBLIC "-//W3C//DTD SVG 1.1//EN"
 "http://www.w3.org/Graphics/SVG/1.1/DTD/svg11.dtd">
<!-- Generated by graphviz version 2.36.0 (20140111.2315)
 -->
<!-- Title: org.lightjason.rest.container.ITerm Pages: 1 -->
<svg width="440pt" height="236pt"
 viewBox="0.00 0.00 440.00 236.00" xmlns="http://www.w3.org/2000/svg" xmlns:xlink="http://www.w3.org/1999/xlink">
<g id="graph0" class="graph" transform="scale(1 1) rotate(0) translate(4 232)">
<title>org.lightjason.rest.container.ITerm</title>
<!-- Node1 -->
<g id="node1" class="node"><title>Node1</title>
<polygon fill="#bfbfbf" stroke="black" points="150,-163 150,-227 282,-227 282,-163 150,-163"/>
<text text-anchor="start" x="158" y="-215.8" font-family="Helvetica,sans-Serif" font-size="9.00">org.lightjason.rest.container.</text>
<text text-anchor="middle" x="216" y="-205.8" font-family="Helvetica,sans-Serif" font-size="9.00">ITerm</text>
<polyline fill="none" stroke="black" points="150,-199 282,-199 "/>
<text text-anchor="middle" x="216" y="-187.8" font-family="Helvetica,sans-Serif" font-size="9.00"> </text>
<polyline fill="none" stroke="black" points="150,-181 282,-181 "/>
<text text-anchor="middle" x="216" y="-169.8" font-family="Helvetica,sans-Serif" font-size="9.00"> </text>
</g>
<!-- Node2 -->
<g id="node2" class="node"><title>Node2</title>
<g id="a_node2"><a xlink:href="../../df/dad/classorg_1_1lightjason_1_1rest_1_1container_1_1CLiteral.html" target="_top" xlink:title="literal container ">
<polygon fill="none" stroke="black" points="0,-1 0,-125 132,-125 132,-1 0,-1"/>
<text text-anchor="start" x="8" y="-113.8" font-family="Helvetica,sans-Serif" font-size="9.00">org.lightjason.rest.container.</text>
<text text-anchor="middle" x="66" y="-103.8" font-family="Helvetica,sans-Serif" font-size="9.00">CLiteral</text>
<polyline fill="none" stroke="black" points="0,-97 132,-97 "/>
<text text-anchor="start" x="8" y="-85.8" font-family="Helvetica,sans-Serif" font-size="9.00">&#45; m_annotation</text>
<text text-anchor="start" x="8" y="-75.8" font-family="Helvetica,sans-Serif" font-size="9.00">&#45; m_functor</text>
<text text-anchor="start" x="8" y="-65.8" font-family="Helvetica,sans-Serif" font-size="9.00">&#45; m_negated</text>
<text text-anchor="start" x="8" y="-55.8" font-family="Helvetica,sans-Serif" font-size="9.00">&#45; m_parallel</text>
<text text-anchor="start" x="8" y="-45.8" font-family="Helvetica,sans-Serif" font-size="9.00">&#45; m_value</text>
<polyline fill="none" stroke="black" points="0,-39 132,-39 "/>
<text text-anchor="start" x="8" y="-27.8" font-family="Helvetica,sans-Serif" font-size="9.00">+ CLiteral()</text>
<text text-anchor="start" x="8" y="-17.8" font-family="Helvetica,sans-Serif" font-size="9.00">+ toString()</text>
<text text-anchor="start" x="8" y="-7.8" font-family="Helvetica,sans-Serif" font-size="9.00">&#45; generate()</text>
</a>
</g>
</g>
<!-- Node1&#45;&gt;Node2 -->
<g id="edge1" class="edge"><title>Node1&#45;&gt;Node2</title>
<path fill="none" stroke="midnightblue" d="M172.433,-156.242C159.84,-145.328 145.803,-133.163 132.162,-121.341"/>
<polygon fill="none" stroke="midnightblue" points="170.222,-158.957 180.071,-162.862 174.807,-153.668 170.222,-158.957"/>
</g>
<!-- Node3 -->
<g id="node3" class="node"><title>Node3</title>
<g id="a_node3"><a xlink:href="../../d4/de7/classorg_1_1lightjason_1_1rest_1_1container_1_1CRaw_3_01T_01_4.html" target="_top" xlink:title="raw value of a term ">
<polygon fill="none" stroke="black" points="150,-26 150,-100 282,-100 282,-26 150,-26"/>
<text text-anchor="start" x="158" y="-88.8" font-family="Helvetica,sans-Serif" font-size="9.00">org.lightjason.rest.container.</text>
<text text-anchor="middle" x="216" y="-78.8" font-family="Helvetica,sans-Serif" font-size="9.00">CRaw&lt; T &gt;</text>
<polyline fill="none" stroke="black" points="150,-72 282,-72 "/>
<text text-anchor="start" x="158" y="-60.8" font-family="Helvetica,sans-Serif" font-size="9.00">&#45; m_value</text>
<polyline fill="none" stroke="black" points="150,-54 282,-54 "/>
<text text-anchor="start" x="158" y="-42.8" font-family="Helvetica,sans-Serif" font-size="9.00">+ CRaw()</text>
<text text-anchor="start" x="158" y="-32.8" font-family="Helvetica,sans-Serif" font-size="9.00">+ toString()</text>
</a>
</g>
</g>
<!-- Node1&#45;&gt;Node3 -->
<g id="edge2" class="edge"><title>Node1&#45;&gt;Node3</title>
<path fill="none" stroke="midnightblue" d="M216,-152.764C216,-135.958 216,-116.694 216,-100.416"/>
<polygon fill="none" stroke="midnightblue" points="212.5,-152.862 216,-162.862 219.5,-152.862 212.5,-152.862"/>
</g>
<!-- Node4 -->
<g id="node4" class="node"><title>Node4</title>
<g id="a_node4"><a xlink:href="../../d3/d18/classorg_1_1lightjason_1_1rest_1_1container_1_1CVariable.html" target="_top" xlink:title="variable container ">
<polygon fill="none" stroke="black" points="300,-21 300,-105 432,-105 432,-21 300,-21"/>
<text text-anchor="start" x="308" y="-93.8" font-family="Helvetica,sans-Serif" font-size="9.00">org.lightjason.rest.container.</text>
<text text-anchor="middle" x="366" y="-83.8" font-family="Helvetica,sans-Serif" font-size="9.00">CVariable</text>
<polyline fill="none" stroke="black" points="300,-77 432,-77 "/>
<text text-anchor="start" x="308" y="-65.8" font-family="Helvetica,sans-Serif" font-size="9.00">&#45; m_functor</text>
<text text-anchor="start" x="308" y="-55.8" font-family="Helvetica,sans-Serif" font-size="9.00">&#45; m_value</text>
<polyline fill="none" stroke="black" points="300,-49 432,-49 "/>
<text text-anchor="start" x="308" y="-37.8" font-family="Helvetica,sans-Serif" font-size="9.00">+ CVariable()</text>
<text text-anchor="start" x="308" y="-27.8" font-family="Helvetica,sans-Serif" font-size="9.00">+ toString()</text>
</a>
</g>
</g>
<!-- Node1&#45;&gt;Node4 -->
<g id="edge3" class="edge"><title>Node1&#45;&gt;Node4</title>
<path fill="none" stroke="midnightblue" d="M259.627,-156.19C278.07,-140.206 299.6,-121.547 318.447,-105.212"/>
<polygon fill="none" stroke="midnightblue" points="257.193,-153.668 251.929,-162.862 261.778,-158.957 257.193,-153.668"/>
</g>
</g>
</svg>
