<?xml version="1.0" encoding="UTF-8" standalone="no"?>
<!DOCTYPE svg PUBLIC "-//W3C//DTD SVG 1.1//EN"
 "http://www.w3.org/Graphics/SVG/1.1/DTD/svg11.dtd">
<!-- Generated by graphviz version 2.36.0 (20140111.2315)
 -->
<!-- Title: org.lightjason.rest.CCommon.languagestring Pages: 1 -->
<svg width="456pt" height="506pt"
 viewBox="0.00 0.00 456.00 506.00" xmlns="http://www.w3.org/2000/svg" xmlns:xlink="http://www.w3.org/1999/xlink">
<g id="graph0" class="graph" transform="scale(1 1) rotate(0) translate(4 502)">
<title>org.lightjason.rest.CCommon.languagestring</title>
<!-- Node1 -->
<g id="node1" class="node"><title>Node1</title>
<polygon fill="#bfbfbf" stroke="black" points="0,-240 0,-258 200,-258 200,-240 0,-240"/>
<text text-anchor="middle" x="100" y="-246.8" font-family="Helvetica,sans-Serif" font-size="9.00">org.lightjason.rest.CCommon.languagestring</text>
</g>
<!-- Node2 -->
<g id="node2" class="node"><title>Node2</title>
<g id="a_node2"><a xlink:href="../../d3/ddf/classorg_1_1lightjason_1_1rest_1_1provider_1_1CExecution.html#acfc466d67da123d68850e8e806a0a9bb" target="_top" xlink:title="add / deletes an belief ">
<polygon fill="none" stroke="black" points="278,-470 278,-498 406,-498 406,-470 278,-470"/>
<text text-anchor="start" x="286" y="-486.8" font-family="Helvetica,sans-Serif" font-size="9.00">org.lightjason.rest.provider.</text>
<text text-anchor="middle" x="342" y="-476.8" font-family="Helvetica,sans-Serif" font-size="9.00">CExecution.belief</text>
</a>
</g>
</g>
<!-- Node1&#45;&gt;Node2 -->
<g id="edge1" class="edge"><title>Node1&#45;&gt;Node2</title>
<path fill="none" stroke="midnightblue" d="M107.428,-267.924C122.642,-309.698 165.002,-410.043 236,-460 248.311,-468.662 263.262,-474.25 277.975,-477.84"/>
<polygon fill="midnightblue" stroke="midnightblue" points="110.702,-266.682 104.071,-258.418 104.101,-269.013 110.702,-266.682"/>
</g>
<!-- Node3 -->
<g id="node3" class="node"><title>Node3</title>
<g id="a_node3"><a xlink:href="../../dd/d5e/classorg_1_1lightjason_1_1rest_1_1provider_1_1CAgentProvider.html#a11eacb4ebc7d43eddc6306f0a5ecf45b" target="_top" xlink:title="rest&#45;api call to add a new belief ">
<polygon fill="none" stroke="black" points="278,-423 278,-451 406,-451 406,-423 278,-423"/>
<text text-anchor="start" x="286" y="-439.8" font-family="Helvetica,sans-Serif" font-size="9.00">org.lightjason.rest.provider.</text>
<text text-anchor="middle" x="342" y="-429.8" font-family="Helvetica,sans-Serif" font-size="9.00">CAgentProvider.belief</text>
</a>
</g>
</g>
<!-- Node1&#45;&gt;Node3 -->
<g id="edge2" class="edge"><title>Node1&#45;&gt;Node3</title>
<path fill="none" stroke="midnightblue" d="M110.516,-267.137C129.489,-301.411 175.464,-375.601 236,-413 248.568,-420.764 263.378,-426.022 277.85,-429.581"/>
<polygon fill="midnightblue" stroke="midnightblue" points="113.534,-265.359 105.699,-258.227 107.376,-268.688 113.534,-265.359"/>
</g>
<!-- Node4 -->
<g id="node4" class="node"><title>Node4</title>
<g id="a_node4"><a xlink:href="../../dd/d5e/classorg_1_1lightjason_1_1rest_1_1provider_1_1CAgentProvider.html#adf74af49d6bd93e31939ba420cf38e9a" target="_top" xlink:title="rest&#45;api call to run a cycle ">
<polygon fill="none" stroke="black" points="278,-376 278,-404 406,-404 406,-376 278,-376"/>
<text text-anchor="start" x="286" y="-392.8" font-family="Helvetica,sans-Serif" font-size="9.00">org.lightjason.rest.provider.</text>
<text text-anchor="middle" x="342" y="-382.8" font-family="Helvetica,sans-Serif" font-size="9.00">CAgentProvider.cycle</text>
</a>
</g>
</g>
<!-- Node1&#45;&gt;Node4 -->
<g id="edge3" class="edge"><title>Node1&#45;&gt;Node4</title>
<path fill="none" stroke="midnightblue" d="M115.556,-266.113C138.465,-291.899 185.553,-340.412 236,-366 248.924,-372.555 263.647,-377.341 277.894,-380.828"/>
<polygon fill="midnightblue" stroke="midnightblue" points="117.955,-263.54 108.743,-258.306 112.68,-268.142 117.955,-263.54"/>
</g>
<!-- Node5 -->
<g id="node5" class="node"><title>Node5</title>
<g id="a_node5"><a xlink:href="../../de/d55/classorg_1_1lightjason_1_1rest_1_1provider_1_1CAgentGeneratorProvider.html#a5cf86925f2fa38f7ad2ed4b969f0034e" target="_top" xlink:title="returns multiple agents from a generator ">
<polygon fill="none" stroke="black" points="236,-329 236,-357 448,-357 448,-329 236,-329"/>
<text text-anchor="start" x="244" y="-345.8" font-family="Helvetica,sans-Serif" font-size="9.00">org.lightjason.rest.provider.</text>
<text text-anchor="middle" x="342" y="-335.8" font-family="Helvetica,sans-Serif" font-size="9.00">CAgentGeneratorProvider.generatemultiplebyid</text>
</a>
</g>
</g>
<!-- Node1&#45;&gt;Node5 -->
<g id="edge4" class="edge"><title>Node1&#45;&gt;Node5</title>
<path fill="none" stroke="midnightblue" d="M124.231,-263.374C150.491,-279.06 194.94,-303.941 236,-319 246.358,-322.799 257.519,-326.122 268.562,-328.986"/>
<polygon fill="midnightblue" stroke="midnightblue" points="125.788,-260.225 115.42,-258.046 122.167,-266.216 125.788,-260.225"/>
</g>
<!-- Node6 -->
<g id="node6" class="node"><title>Node6</title>
<g id="a_node6"><a xlink:href="../../de/d55/classorg_1_1lightjason_1_1rest_1_1provider_1_1CAgentGeneratorProvider.html#ae64ff8c386bff4d8b79438e785ed4f6a" target="_top" xlink:title="returns a single agent from a generator ">
<polygon fill="none" stroke="black" points="240,-282 240,-310 444,-310 444,-282 240,-282"/>
<text text-anchor="start" x="248" y="-298.8" font-family="Helvetica,sans-Serif" font-size="9.00">org.lightjason.rest.provider.</text>
<text text-anchor="middle" x="342" y="-288.8" font-family="Helvetica,sans-Serif" font-size="9.00">CAgentGeneratorProvider.generatesinglebyid</text>
</a>
</g>
</g>
<!-- Node1&#45;&gt;Node6 -->
<g id="edge5" class="edge"><title>Node1&#45;&gt;Node6</title>
<path fill="none" stroke="midnightblue" d="M157.05,-259.977C190.492,-266.525 233.294,-274.908 269.194,-281.938"/>
<polygon fill="midnightblue" stroke="midnightblue" points="157.477,-256.494 146.99,-258.006 156.131,-263.363 157.477,-256.494"/>
</g>
<!-- Node7 -->
<g id="node7" class="node"><title>Node7</title>
<g id="a_node7"><a xlink:href="../../dd/d5e/classorg_1_1lightjason_1_1rest_1_1provider_1_1CAgentProvider.html#a3541b98144ee6c9fd62b10f362de8008" target="_top" xlink:title="rest&#45;api call to trigger a plan ">
<polygon fill="none" stroke="black" points="278,-235 278,-263 406,-263 406,-235 278,-235"/>
<text text-anchor="start" x="286" y="-251.8" font-family="Helvetica,sans-Serif" font-size="9.00">org.lightjason.rest.provider.</text>
<text text-anchor="middle" x="342" y="-241.8" font-family="Helvetica,sans-Serif" font-size="9.00">CAgentProvider.goal</text>
</a>
</g>
</g>
<!-- Node1&#45;&gt;Node7 -->
<g id="edge6" class="edge"><title>Node1&#45;&gt;Node7</title>
<path fill="none" stroke="midnightblue" d="M210.247,-249C233.429,-249 257.15,-249 277.913,-249"/>
<polygon fill="midnightblue" stroke="midnightblue" points="210.003,-245.5 200.003,-249 210.003,-252.5 210.003,-245.5"/>
</g>
<!-- Node8 -->
<g id="node8" class="node"><title>Node8</title>
<g id="a_node8"><a xlink:href="../../dd/d5e/classorg_1_1lightjason_1_1rest_1_1provider_1_1CAgentProvider.html#a9dd3d88df04e2189d0c7aed93c222a61" target="_top" xlink:title="rest&#45;api call to trigger a plan immediately ">
<polygon fill="none" stroke="black" points="266,-188 266,-216 418,-216 418,-188 266,-188"/>
<text text-anchor="start" x="274" y="-204.8" font-family="Helvetica,sans-Serif" font-size="9.00">org.lightjason.rest.provider.</text>
<text text-anchor="middle" x="342" y="-194.8" font-family="Helvetica,sans-Serif" font-size="9.00">CAgentProvider.goalimmediately</text>
</a>
</g>
</g>
<!-- Node1&#45;&gt;Node8 -->
<g id="edge7" class="edge"><title>Node1&#45;&gt;Node8</title>
<path fill="none" stroke="midnightblue" d="M157.05,-238.023C190.492,-231.475 233.294,-223.092 269.194,-216.062"/>
<polygon fill="midnightblue" stroke="midnightblue" points="156.131,-234.637 146.99,-239.994 157.477,-241.506 156.131,-234.637"/>
</g>
<!-- Node9 -->
<g id="node9" class="node"><title>Node9</title>
<g id="a_node9"><a xlink:href="../../d3/ddf/classorg_1_1lightjason_1_1rest_1_1provider_1_1CExecution.html#a52798d2fb3cb928d38cb83b9b65927a6" target="_top" xlink:title="trigger a goal ">
<polygon fill="none" stroke="black" points="278,-141 278,-169 406,-169 406,-141 278,-141"/>
<text text-anchor="start" x="286" y="-157.8" font-family="Helvetica,sans-Serif" font-size="9.00">org.lightjason.rest.provider.</text>
<text text-anchor="middle" x="342" y="-147.8" font-family="Helvetica,sans-Serif" font-size="9.00">CExecution.goaltrigger</text>
</a>
</g>
</g>
<!-- Node1&#45;&gt;Node9 -->
<g id="edge8" class="edge"><title>Node1&#45;&gt;Node9</title>
<path fill="none" stroke="midnightblue" d="M124.231,-234.626C150.491,-218.94 194.94,-194.059 236,-179 249.255,-174.139 263.824,-170.057 277.779,-166.719"/>
<polygon fill="midnightblue" stroke="midnightblue" points="122.167,-231.784 115.42,-239.954 125.788,-237.775 122.167,-231.784"/>
</g>
<!-- Node10 -->
<g id="node10" class="node"><title>Node10</title>
<g id="a_node10"><a xlink:href="../../dd/d5e/classorg_1_1lightjason_1_1rest_1_1provider_1_1CAgentProvider.html#a5d9d98a5156a3b87d3b7c9eda55668f7" target="_top" xlink:title="rest&#45;api call to set sleeping state (http post) ">
<polygon fill="none" stroke="black" points="278,-94 278,-122 406,-122 406,-94 278,-94"/>
<text text-anchor="start" x="286" y="-110.8" font-family="Helvetica,sans-Serif" font-size="9.00">org.lightjason.rest.provider.</text>
<text text-anchor="middle" x="342" y="-100.8" font-family="Helvetica,sans-Serif" font-size="9.00">CAgentProvider.sleep</text>
</a>
</g>
</g>
<!-- Node1&#45;&gt;Node10 -->
<g id="edge9" class="edge"><title>Node1&#45;&gt;Node10</title>
<path fill="none" stroke="midnightblue" d="M115.556,-231.887C138.465,-206.101 185.553,-157.588 236,-132 248.924,-125.445 263.647,-120.659 277.894,-117.172"/>
<polygon fill="midnightblue" stroke="midnightblue" points="112.68,-229.858 108.743,-239.694 117.955,-234.46 112.68,-229.858"/>
</g>
<!-- Node11 -->
<g id="node11" class="node"><title>Node11</title>
<g id="a_node11"><a xlink:href="../../dd/d5e/classorg_1_1lightjason_1_1rest_1_1provider_1_1CAgentProvider.html#ae8a42adc84ba59ff2f5ef232dd2691e1" target="_top" xlink:title="rest&#45;api call to get current state of the agent ">
<polygon fill="none" stroke="black" points="278,-47 278,-75 406,-75 406,-47 278,-47"/>
<text text-anchor="start" x="286" y="-63.8" font-family="Helvetica,sans-Serif" font-size="9.00">org.lightjason.rest.provider.</text>
<text text-anchor="middle" x="342" y="-53.8" font-family="Helvetica,sans-Serif" font-size="9.00">CAgentProvider.view</text>
</a>
</g>
</g>
<!-- Node1&#45;&gt;Node11 -->
<g id="edge10" class="edge"><title>Node1&#45;&gt;Node11</title>
<path fill="none" stroke="midnightblue" d="M110.516,-230.863C129.489,-196.589 175.464,-122.399 236,-85 248.568,-77.2359 263.378,-71.9782 277.85,-68.4193"/>
<polygon fill="midnightblue" stroke="midnightblue" points="107.376,-229.312 105.699,-239.773 113.534,-232.641 107.376,-229.312"/>
</g>
<!-- Node12 -->
<g id="node12" class="node"><title>Node12</title>
<g id="a_node12"><a xlink:href="../../dd/d5e/classorg_1_1lightjason_1_1rest_1_1provider_1_1CAgentProvider.html#a63201a4763efc5fd63a303993e04f57f" target="_top" xlink:title="rest&#45;api call to run wake&#45;up (http post) ">
<polygon fill="none" stroke="black" points="278,-0 278,-28 406,-28 406,-0 278,-0"/>
<text text-anchor="start" x="286" y="-16.8" font-family="Helvetica,sans-Serif" font-size="9.00">org.lightjason.rest.provider.</text>
<text text-anchor="middle" x="342" y="-6.8" font-family="Helvetica,sans-Serif" font-size="9.00">CAgentProvider.wakeup</text>
</a>
</g>
</g>
<!-- Node1&#45;&gt;Node12 -->
<g id="edge11" class="edge"><title>Node1&#45;&gt;Node12</title>
<path fill="none" stroke="midnightblue" d="M107.428,-230.076C122.642,-188.302 165.002,-87.9569 236,-38 248.311,-29.3377 263.262,-23.75 277.975,-20.1598"/>
<polygon fill="midnightblue" stroke="midnightblue" points="104.101,-228.987 104.071,-239.582 110.702,-231.318 104.101,-228.987"/>
</g>
</g>
</svg>
